<?xml version="1.0" encoding="utf-8" ?>
<svg xmlns="http://www.w3.org/2000/svg" xmlns:xlink="http://www.w3.org/1999/xlink" width="512" height="512">
	<path fill="#1D3557" d="M424.687 38.3616L424.504 37.992C423.942 35.0332 423.779 21.7812 424.411 18.5858C426.903 5.99743 443.019 -0.218627 453.335 7.29047C464.837 15.6627 459.156 28.6234 461.065 39.1965C481.254 37.3482 504.575 43.0967 506.704 66.6834C507.838 79.2445 507.076 89.5189 506.715 101.695L506.67 457.857C506.72 459.824 507.118 461.749 507.191 463.717L507.205 490.819C506.796 499.042 502.269 505.149 494.982 508.578C489.862 510.987 483.7 509.95 478.176 509.951L25.3821 509.953C15.2458 509.95 5.93847 503.01 5.68123 492.493L5.74363 90.099C5.74656 71.5664 2.27478 51.3193 22.6626 41.7929C29.4423 38.625 44.5373 38.1853 52.5178 39.2595L52.5642 25.7529C52.5678 22.8875 52.3407 19.7763 52.9291 16.9694C56.561 -0.355669 82.2763 0.184328 87.5043 16.25C88.5848 19.5704 88.5416 22.8689 88.5447 26.324L88.597 38.6479C91.4672 38.3233 94.231 38.4298 96.9694 38.4369L144.321 38.5695C144.041 34.1958 143.569 21.2948 144.589 17.4863L144.723 17C146.335 10.9368 150.958 6.1186 157.207 4.72893L157.491 4.66763C166.587 2.60611 176.257 7.79155 179.243 16.6582C180.376 20.0246 180.411 23.9262 180.438 27.4404L180.489 38.2691C180.858 38.6323 184.309 38.4182 185.067 38.4192L237.675 38.5303L237.552 28.4087C237.538 25.1286 237.243 21.4241 238.109 18.2376C242.366 2.58094 262.912 -0.615451 270.951 12.4107L271.125 12.6987C274.084 17.5311 274.237 23.1259 274.27 28.6251L274.295 38.5338C276.292 38.2334 278.408 38.3883 280.428 38.4124L289 38.5576C290.758 38.6668 292.492 38.9121 294.256 38.9554L331.313 38.8511C331.444 31.4191 329.797 19.2697 333.958 12.7504C341.628 0.734521 360.175 1.50584 366.241 14.375C368.224 18.5836 368.373 22.9313 368.4 27.4982L368.461 38.5324L424.687 38.3616Z"/>
	<path fill="#A8DADC" d="M159.462 12.2813C164.983 12.0118 169.681 13.6236 172.462 18.7824L172.679 19.1895C173.61 20.9018 173.437 22.9121 173.462 24.8034L173.529 53.7707C173.545 63.9219 176.935 78.0876 165.241 82.172C163.692 82.4919 162.062 82.6153 160.497 82.3444L160.125 82.276C149.864 80.4958 151.132 70.7116 151.285 62.9955L151.336 33.5632C151.343 25.7575 149.533 14.6468 159.462 12.2813Z"/>
	<path fill="#A8DADC" d="M254.373 12.058C259.816 11.5361 264.9 14.5958 266.388 19.9785L266.643 20.8594C267.888 25.1594 267.304 30.8972 267.314 35.3587L267.349 55.2368C267.371 64.816 270.23 79.5442 257.945 82.7855C246.876 82.9151 244.277 76.3629 244.467 67.2529L244.565 35.5546C244.588 25.6464 241.832 14.4279 254.373 12.058Z"/>
	<path fill="#A8DADC" d="M442.679 11.5821C447.535 11.1723 451.666 13.4711 453.129 18.2466L453.507 19.5122C454.582 24.0638 454.068 29.45 454.08 34.1243L454.125 56.2741C454.152 68.1584 457.602 78.0892 443.734 83.2725C433.188 83.2982 430.774 75.3997 431.054 66.847L431.749 32.0226C431.765 22.0932 429.769 13.4958 442.679 11.5821Z"/>
	<path fill="#A8DADC" d="M68.8235 11.8065C74.7843 11.2773 80.0067 13.9696 81.4447 20.2188L81.5037 20.5C82.3653 24.4495 81.9967 29.0217 82.0062 33.0508L82.0473 64.9754C82.0446 72.6627 82.0593 80.3581 72.7998 82.7736C67.2313 82.835 61.0775 80.1733 59.3138 74.4056L59.1948 74C58.592 72.0445 58.8895 69.8608 58.9217 67.8317L59.4972 27.7451C59.6328 25.1468 59.6161 22.5287 60.1378 19.9678L60.21 19.625C61.1722 14.883 64.1005 12.7865 68.8235 11.8065Z"/>
	<path fill="#A8DADC" d="M349.393 11.5817C361.973 12.3529 361.64 24.731 361.668 34.4337L361.726 52.8498C361.894 63.4162 365.847 79.7537 351.4 82.7411C340.517 82.862 338.369 74.893 338.632 66.3042L338.763 22.1206C338.831 20.8322 338.972 18.4724 339.735 17.3983L340.262 16.6944C342.546 13.563 345.632 12.1437 349.393 11.5817Z"/>
	<path fill="#457B9D" d="M308.814 463.737L501.477 464.295C501.707 468.291 501.542 472.38 501.541 476.386L501.528 485.752C501.468 503.371 489.443 504.609 474.34 504.584L203.625 504.537L33.7575 504.574C31.419 504.576 28.9792 504.677 26.6581 504.387L26.25 504.332C22.0365 503.793 17.4457 501.531 14.4555 498.517C10.2448 494.273 11.4062 488.386 11.4116 482.974L11.3514 464.247L308.814 463.737Z"/>
	<path fill="#B02DC7" d="M88.4845 44.2133C91.0327 45.0427 94.0121 44.9117 96.6465 44.9476L144.209 44.9026L144.212 60.3557C144.222 68.6969 143.461 77.3279 149.895 83.7825C156.39 90.2984 168.521 90.691 175.129 84.0501C181.445 77.703 180.528 67.7283 180.514 59.5108L180.483 44.8356L237.552 44.9313L237.403 58.8075C237.22 63.9693 236.437 69.2788 237.64 74.3919C242.548 95.2579 272.124 95.1176 274.394 68.8114C274.668 65.6392 274.375 62.2336 274.368 59.0363L274.247 44.6981L331.94 44.9811L332.027 59.0942C331.849 68.3308 330.75 77.1242 338.125 84.1678C345.404 91.1192 356.157 90.3566 362.875 83.0423C368.744 76.6523 369.375 67.5397 369.001 59.3241L368.469 44.803L425.197 44.9285L424.832 70.1992C425.114 93.7372 455.486 95.1166 461.758 74.6222C462.636 71.7538 462.424 68.2525 462.414 65.2799L461.614 45.4634L470.558 45.6289C502.795 47.9826 501.635 65.5113 501.571 91.8914C501.556 97.708 501.798 103.634 501.342 109.429C497.161 108.94 492.692 109.202 488.473 109.201L366.21 109.255L272.408 109.153L227.255 109.199L62.2742 108.763L11.8488 109.215L11.8842 80.7726C11.8804 62.9352 11.445 48.3475 33.2285 45.3295C39.7294 44.4288 46.1148 45.4307 52.5902 45.5342L52.6378 71.2636C53.1148 82.1629 64.272 91.2918 75.0746 88.4046L75.5 88.2852C87.9054 84.9678 88.4484 70.2852 88.469 59.8603L88.4845 44.2133Z"/>
	<path fill="#1D3557" d="M486.791 65.6112C486.765 65.0565 486.745 65.0253 487.055 64.5715L488.031 64.4983C488.909 64.464 489.143 64.6945 489.747 65.2591C489.338 65.94 489.257 65.8499 488.473 66.0521L486.791 65.6112Z"/>
	<path fill="#4C227F" d="M467.808 60.625C468.962 60.3597 469.97 61.1202 470.972 61.6495C469.937 63.9932 470.212 64.2955 470.305 66.875L470.225 66.9453C467.351 68.9266 467.516 62.0693 467.808 60.625Z"/>
	<path fill="#4C227F" d="M477.269 65.125C479.984 64.7887 477.614 67.1424 477.528 67.8075C477.38 68.9438 479.241 71.0023 478.875 73.4994L478.339 73.625C475.297 71.3751 473.647 67.6043 477.269 65.125Z"/>
	<path fill="#4C227F" d="M489.747 65.2591C491.144 66.7587 493.587 82.1768 490.284 82.641C486.221 81.3445 488.215 75.3036 488.02 72.254C487.918 70.6543 487.452 68.998 487.09 67.4358L486.791 65.6112L488.473 66.0521C489.257 65.8499 489.338 65.94 489.747 65.2591Z"/>
	<path fill="#5C367A" d="M486.791 65.6112L488.473 66.0521C489.019 66.6985 489.059 67.1208 489.125 67.9239L488.865 68.125C488.151 67.6625 487.961 67.4872 487.09 67.4358L486.791 65.6112Z"/>
	<path fill="#F1FAEE" d="M167.541 115.531L492.855 115.53C494.701 115.531 498.525 115.082 500.126 115.851L500.222 457.426C498.714 457.651 496.978 457.498 495.444 457.498L345.625 457.498L12.4227 457.44L12.4956 115.671C14.0064 115.423 15.6661 115.558 17.1981 115.553L167.541 115.531Z"/>
	<path fill="#1D3557" d="M375.491 363.783L461.282 364.05C465.187 364.515 464.173 369.558 461.084 370.922L383.002 371.052C380.337 371.041 375.488 371.627 373.488 369.625C372.188 367.087 372.986 364.862 375.491 363.783Z"/>
	<path fill="#1D3557" d="M50.4535 363.808C58.905 363.89 136.059 363.55 137.27 364.041C140.459 365.334 140.259 369.626 136.459 370.712C130.469 371.435 124.157 371.054 118.125 371.058L62.5753 371.064C58.812 371.059 54.5871 371.415 50.875 370.848C46.465 370.175 46.8734 365.31 50.4535 363.808Z"/>
	<path fill="#1D3557" d="M49.7382 195.875C53.3194 195.543 57.068 195.759 60.6642 195.758L180.675 195.831C181.875 195.854 183.361 195.789 184.5 196.181C185.467 196.514 188.885 201.922 183.818 202.908L55.4075 202.98C51.8172 202.972 45.7249 203.365 47.8639 197.695C48.2472 196.679 48.773 196.295 49.7382 195.875Z"/>
	<path fill="#1D3557" d="M176.671 320.79L177.018 320.643C187.413 317.978 189.159 327.8 182.628 328.012L57.375 328.03C55.5272 328.033 50.3074 328.485 49.0041 327.439C46.5072 325.436 47.7443 321.083 50.9837 320.905L176.671 320.79Z"/>
	<path fill="#1D3557" d="M329.426 278.106L424.037 278.377C428.075 278.378 460.939 277.839 462.627 278.837C464.675 280.048 464.841 285.455 460.562 286.012L330.3 285.608C324.779 285.348 324.403 278.774 329.426 278.106Z"/>
	<path fill="#1D3557" d="M326.674 195.616L461.163 195.714C464.647 196.032 464.418 201.304 461.937 202.942C457.382 203.383 452.481 203.01 447.888 203.009L332.386 202.987C330.555 202.97 327.824 203.135 326.125 202.462C324.222 201.71 324.289 197.197 325.106 195.856L326.674 195.616Z"/>
	<path fill="#1D3557" d="M334.903 320.798C336.428 321.136 338.975 320.798 340.593 320.798L453.202 320.821C455.571 320.827 460.504 320.251 462.5 321.42C464.334 322.493 463.986 326.451 462.998 327.894C460.392 328.575 456.547 328.073 453.795 328.032L328.314 328.114C324.586 327.981 322.95 325.016 324.941 321.581C326.769 320.218 332.502 320.812 334.903 320.798Z"/>
	<path fill="#1D3557" d="M50.4633 235.802L169.172 235.974C173.346 235.971 177.99 235.573 182.111 236.09L182.5 236.144C183.513 236.277 184.205 236.375 185.003 237.059L185.702 237.691C187.03 239.005 187.217 241.252 185.888 242.625L184.408 243.085L56.4542 243.277C54.5028 243.269 52.11 243.466 50.2489 242.86L50 242.775C46.1756 241.626 47.7117 237.17 50.4633 235.802Z"/>
	<path fill="#1D3557" d="M327.927 235.875C330.815 235.81 333.783 235.976 336.682 235.978L445.073 236.005C450.946 236.007 457.321 235.494 463.113 236.322C463.904 239.863 464.571 242.3 460.963 243.04L328.705 243.234C324.186 242.712 324.843 237.077 327.927 235.875Z"/>
	<path fill="#1D3557" d="M49.9075 278.306L179.363 278.33C186.857 278.333 188.104 283.564 183.205 285.386C178.404 286.082 173.324 285.745 168.492 285.741L55.8163 285.719C53.6777 285.706 49.7443 286.088 48.2091 284.536C47.4971 282.09 47.3516 279.547 49.9075 278.306Z"/>
	<path fill="#1D3557" d="M325.891 152.875C328.907 152.475 332.198 152.758 335.252 152.762L457.54 152.741C461.419 152.727 465.255 153.202 463.238 158.75C462.988 159.438 462.289 159.571 461.681 159.846C457.277 160.671 452.176 160.23 447.695 160.234L330.124 160.25C328.565 160.247 325.492 160.642 324.375 159.519C323.596 157.363 323.693 154.162 325.891 152.875Z"/>
	<path fill="#1D3557" d="M50.3631 152.32L178.548 152.763C181.277 152.764 190.535 153.087 187.139 158.495C186.582 159.382 185.489 159.562 184.546 159.724L182.922 160.128C174.911 160.589 166.705 160.245 158.669 160.252L71.3411 160.239C64.4747 160.234 57.3563 160.613 50.5247 160.124C46.3646 159.826 47.2423 153.701 50.3631 152.32Z"/>
	<path fill="#1D3557" d="M292.089 232.438C294.551 229.941 297.796 228.815 301.167 228.223C307.529 231.835 306.618 255.387 305.977 263.564C305.714 266.913 304.89 270.304 304.741 273.625C305.463 274.977 307.386 275.442 308.548 276.44C314.452 281.511 307.338 292.788 303.25 296.625C300.073 299.606 299.92 299.005 299.09 303.349C296.712 315.798 289.596 326.71 281.338 336.108C289.817 343.354 291.556 348.352 302.659 352.393C307.997 354.335 313.548 355.787 319.046 357.208C339.021 362.369 347.309 364.444 350.599 385.477C351.84 393.408 352.246 401.372 352.477 409.384L453.456 409.506C456.863 409.516 462.703 408.079 464.178 412.262C466.551 418.997 455.412 416.947 451.926 416.953L56.1226 416.955C54.3367 416.954 49.8415 417.371 48.5 416.25C46.74 414.779 47.7332 410.711 49.7225 409.781C51.4344 408.98 57.968 409.466 60.1243 409.466L159.487 409.59L160.625 394.238C162.201 374.69 164.211 366.502 184.973 360.166L199.62 356.185C213.108 352.844 221.131 346.544 230.778 336.805C222.803 323.73 216.966 319.378 212.745 302.186C211.31 296.341 212.93 300.034 208.063 296.189C201.691 291.155 196.547 276.173 206.443 272.438L206.752 272.327C204.791 264.581 200.522 257.586 199.068 249.595C197.72 242.188 200.47 234.858 201.899 227.703C202.523 224.579 202.249 221.438 204.127 218.714L208.345 220.625C211.347 221.923 214.787 221.388 217.73 220.232C214.821 218.365 213.061 216.61 211.428 213.559C218.236 213.297 225.207 215.314 231.957 214.094C239.04 212.815 245.038 207.707 252.069 205.942C263.428 203.09 281.665 209.563 290.363 216.416C294.383 219.583 299.16 226.53 292.828 229.975L292.63 230.078C292.003 230.774 291.567 231.551 292.089 232.438Z"/>
	<path fill="#EBBB55" d="M216.319 293.567C209.911 292.185 202.334 282.188 208.788 276.949C211.95 284.788 211.899 285.322 218.267 291.706C218.201 292.533 218.135 292.956 217.625 293.622L216.319 293.567Z"/>
	<path fill="#F7CAA7" d="M276.591 342.375L277.123 342.264C278.127 343.05 278.968 343.955 279.843 344.877C277.799 349.957 268.493 363.028 261.895 360.679C252.805 355.59 260.865 352.464 265.75 349.509C269.441 347.276 273.114 344.93 276.591 342.375Z"/>
	<path fill="#F7CAA7" d="M235.291 341.885L252.437 354.086C251.932 356.467 249.868 359.357 247.872 360.691L244.607 362.548C240.526 360.154 233.348 349.673 231.652 345.678C232.284 344.227 234.095 342.88 235.291 341.885Z"/>
	<path fill="#457B9D" d="M296.2 237.125L297.001 237.016C301.319 240.502 298.313 263.817 297.254 270.731L294.716 265.113L287.756 252.381C285.027 247.057 291.741 239.235 296.2 237.125Z"/>
	<path fill="#A8DADC" d="M239.424 377.625C240.901 377.757 243.021 391.715 243.252 393.943L244.311 410.67C243.881 410.003 243.462 409.245 242.903 408.684L237.508 401.908L224.688 387.401L239.424 377.625Z"/>
	<path fill="#A8DADC" d="M271.679 378.281C277.116 380.417 280.811 384.164 285.175 387.896L268.338 405.769L265.03 410.144C263.978 411.402 262.303 411.285 260.793 411.435L271.679 378.281Z"/>
	<path fill="#A8DADC" d="M217.4 357.981L226.739 348.889C230.505 356.915 236.275 361.705 239.941 368.768C235.772 374.685 228.792 379.682 222.477 383.111C219.554 376.623 223.232 374.389 214.877 371.264C213.892 371.118 213.258 370.864 213.568 369.806L214.021 367.858C214.115 366.846 214.081 365.918 213.981 364.908C214.891 362.508 216.002 360.137 217.4 357.981Z"/>
	<path fill="#457B9D" d="M214.021 367.858C215.96 368.575 216.371 369.54 214.877 371.264C213.892 371.118 213.258 370.864 213.568 369.806L214.021 367.858Z"/>
	<path fill="#A8DADC" d="M284.976 348.213C289.304 353.486 295.257 356.563 297.019 363.885C298.85 371.492 294.505 368.795 292.47 372.042C291.4 373.748 291.922 375.642 291.351 377.51C290.471 380.384 288.965 382.693 287.391 385.214L283.993 382.178C277.255 376.682 273.397 374.209 268.546 366.526C276.043 362.567 280.654 355.248 284.976 348.213Z"/>
	<path fill="#B02DC7" d="M255.608 364.453C258.881 365.954 266.564 371.137 266.338 375.53C266.239 377.452 265.414 379.638 264.814 381.468L260.079 394.628C258.253 399.944 256.838 405.121 255.723 410.625C255.021 412.249 252.926 411.213 251.543 410.892C251.448 407.043 250.43 402.991 249.859 399.179L246.43 376.585C244.861 368.304 247.794 368.377 255.608 364.453Z"/>
	<path fill="#457B9D" d="M167.886 385.102C168.304 370.916 179.882 368.351 191.457 364.668C196.734 362.988 201.993 361.348 207.394 360.099L217.4 357.981C216.002 360.137 214.891 362.508 213.981 364.908C211.01 364.99 203.558 371.499 207.375 374.023C208.854 375.001 211.111 374.367 212.741 375.549C216.309 378.135 214.77 380.208 221.022 383.527L220.724 383.686C214.56 387.045 218.538 389.395 221.765 392.75L231.399 403.329C233.491 405.692 235.903 408.194 237.582 410.871L166.274 410.449L166.296 409.758C168.525 406.494 167.796 401.832 167.806 398.122L167.886 385.102Z"/>
	<path fill="#457B9D" d="M298.906 356.863L313.112 361.083C331.311 366.162 342.48 367.326 345.237 388.82C346.169 396.084 346.283 402.885 346.27 410.209L306.125 410.211L268.728 411.657C271.602 410.061 274.075 407.503 276.464 405.27L288.807 393.567C290.716 391.847 292.511 390.052 294.806 388.853L295.19 388.655C295.041 387.716 293.649 385.959 293.7 385.277C293.788 384.115 297.446 380.545 297.439 378.125C297.437 377.6 297.204 377.859 297.347 377.125C300.516 376.31 304.152 374.755 306.646 372.656C304.613 369.714 302.044 369.974 301.543 366.709C301.057 363.539 300.106 359.829 298.906 356.863Z"/>
	<path fill="#457B9D" d="M292.089 232.438C292.001 232.967 290.252 234.637 289.822 235.221C288.008 237.688 286.883 240.582 284.87 242.92C270.34 259.795 237.521 262.769 217.202 260.255C217.107 258.114 217.25 254.082 214.375 253.834L213.704 254.494C211.856 256.475 212.429 269.372 212.578 272.56L212.263 272.526C211.662 271.28 211.522 269.617 211.026 268.266C206.075 254.784 200.372 244.466 208.684 230.36C211.591 230.083 212.904 229.677 215.427 228.282L230.375 221.279C235.377 219.174 243.21 216.223 248.288 214.532C259.165 210.91 279.947 212.532 286.822 222.843C288.77 225.764 288.598 229.69 292.63 230.078C292.003 230.774 291.567 231.551 292.089 232.438Z"/>
	<path fill="#FFC15A" d="M218.267 291.706C219.943 288.536 217.982 282.677 217.726 279.256C217.416 275.103 217.585 270.819 217.567 266.65L217.801 266.712C238.479 271.848 265.323 266.858 283.258 255.838L285.904 254.081C289.751 261.484 294.039 268.144 292.925 276.875C292.717 278.506 289.422 293.468 296.105 289.608C299.822 287.461 300.656 280.906 303.269 277.56C306.203 284.15 303.915 289.34 297.637 292.438C294.354 294.058 294.052 294.783 293.471 298.241L292.236 304.464C290.763 310.726 283.919 325.435 277.901 328.987L277.795 329.261C275.407 335.33 269.321 338.998 264 342.266C257.231 346.423 257.702 347.611 250.802 344.037C234.588 335.637 223.786 319.703 219.368 302.266C218.592 299.204 218.654 295.892 216.319 293.567L217.625 293.622C218.135 292.956 218.201 292.533 218.267 291.706Z"/>
</svg>
