<?xml version="1.0" encoding="utf-8" ?>
<svg xmlns="http://www.w3.org/2000/svg" xmlns:xlink="http://www.w3.org/1999/xlink" width="512" height="512">
	<defs>
		<linearGradient id="gradient_0" gradientUnits="userSpaceOnUse" x1="256.23517" y1="495.92963" x2="254.5024" y2="-0.0043757916">
			<stop offset="0" stop-color="#102B51"/>
			<stop offset="1" stop-color="#465B76"/>
		</linearGradient>
	</defs>
	<path fill="url(#gradient_0)" d="M253.381 0L258.227 0L259.246 63.0946L259.246 68.486L259.918 92.9163L260.125 182.402C270.756 182.482 280.932 183.551 288.748 191.589C297.185 200.266 295.746 213.174 295.726 224.293L308.439 224.272C315.358 224.26 322.415 224.862 327.704 219.479C335.206 211.845 333.459 197.31 345.25 193.935L345.547 193.844C348.533 192.965 352.723 193.431 355.857 193.425L386.708 193.423C409.949 193.465 421.718 204.948 433.345 224.608C441.467 238.343 446.944 253.908 452.666 268.741L462.31 293.448L480.588 350.541L486.425 373.832C488.053 380.431 490.057 387.086 491.335 393.755C497.706 427.018 498.207 483.282 457.135 494.291C440.695 498.697 427.052 490.734 415.161 480.342L337.464 405.93C334.201 402.792 330.244 399.699 327.414 396.179C313.41 405.154 296.197 407.326 286.248 391.543C285.42 390.229 285.111 388.559 283.981 387.49L227.414 387.497C227.018 388.083 226.765 388.584 226.539 389.255C224.91 394.103 219.785 398.584 215.273 400.745C204.304 405.996 193.734 403.626 184.627 396.42C180.449 400.887 175.65 404.681 171.118 408.776L118.528 459.766C108.809 469.261 99.4723 479.583 88.1845 487.268C71.2184 498.818 52.4384 498.626 37.0184 484.118C12.8016 461.334 15.5801 421.643 21.1849 392.023L24.8413 375.961C34.1778 334.608 47.9637 294.366 64.6607 255.431C74.898 231.559 89.6903 193.98 120.927 193.404L160.113 193.409C183.631 193.325 172.204 221.29 195.467 224.219C198.095 224.55 201.002 224.319 203.66 224.307L216.47 224.261C216.422 213.343 215.052 200.108 223.482 191.626C230.316 184.749 238.334 182.611 247.793 182.363C251.484 182.265 251.828 183.185 251.838 179.712L251.903 94.0963L251.891 68.6465C252.257 67.172 251.982 65.1836 251.933 63.669L251.814 16.2968C251.701 9.87925 252.231 6.22941 253.381 0Z"/>
	<path fill="#B02DC7" d="M200.354 358.345C225.315 356.843 229.468 391.531 205.309 394.807C203.238 394.909 200.976 394.895 198.958 394.388L198.5 394.267C189.009 391.811 181.307 382.048 183.83 371.945L183.948 371.5C185.984 363.603 192.425 359.331 200.354 358.345Z"/>
	<path fill="#B02DC7" d="M308.923 358.354C332.062 356.782 335.531 394.34 308.041 395.787C283.841 393.465 280.845 360.855 308.923 358.354Z"/>
	<path fill="#457B9D" d="M249.987 191.043C250.09 191.094 250.013 191.043 250.259 191.039L263.101 190.982C287.301 190.98 287.084 203.72 287.023 224.253L261.875 224.25L224.493 224.248C224.434 202.328 224.435 191.798 249.987 191.043Z"/>
	<path fill="#A8DADC" d="M123.16 202.115L156.955 202.127C159.237 202.14 162.021 201.894 164.152 202.796L164.5 202.949C168.206 204.448 168.827 207.907 169.991 211.375C178.158 235.706 194.775 233.672 216.956 233.681L307.837 233.676C332.177 233.664 335.738 228.032 343.242 208.25C343.941 206.407 344.527 203.712 345.693 202.2C352.999 201.799 360.505 202.127 367.83 202.121L393.521 202.148C421.542 202.632 437.983 255.727 445.979 276.679L461.486 316.894L473.729 359.625C482.407 390.107 490.902 421.214 482.999 452.875C480.12 464.408 474.524 475.949 463.957 482.219C443.22 494.524 427.529 481.376 413.078 467.216L338.92 394.979L333.304 390.045C351.424 349.512 288.204 331.611 281.864 372.515C281.546 374.567 281.515 376.745 281.04 378.753L230.818 378.746C230.283 378.615 230.465 377.892 230.442 377.432C228.803 343.45 187.186 341.243 177.091 366.147C173.711 374.486 175.611 382.573 178.947 390.548L110.744 455.564C92.7464 474.389 66.4043 501.336 41.4782 477.094C9.05752 445.563 35.3645 364.503 46.8796 328.546L56.6497 298.997L69.4809 267.749C77.3682 248.627 92.5397 206.032 115.694 202.359C118.083 201.98 120.737 202.144 123.16 202.115Z"/>
	<path fill="#1D3557" d="M280.033 298.357C283.543 298.091 287.884 298.056 291.323 298.814L291.75 298.911C296.762 300.027 300.588 303.052 301.737 308.252L302.206 310.75C303.202 322.675 295.318 328.181 284.374 328.735C280.842 328.723 276.758 329.104 273.299 328.38C265.283 326.704 259.844 318.827 261.828 310.706L261.946 310.25C264.376 300.695 270.978 298.882 280.033 298.357Z"/>
	<path fill="#F60E6F" d="M282.392 307.364C284.319 307.367 286.646 307.275 288.491 307.833L288.875 307.958C300.136 311.447 291.264 320.53 280.356 320.518C262.983 317.758 266.77 307.879 282.392 307.364Z"/>
	<path fill="#1D3557" d="M222.136 298.597C252.929 295.365 251.392 324.113 235.281 327.968L234.875 328.062C232.984 328.523 231.074 328.559 229.137 328.651C222.901 328.619 215.819 329.131 210.555 325.086C205.134 320.921 202.311 310.722 206.892 305.009C210.462 300.557 216.752 299.208 222.136 298.597Z"/>
	<path fill="#F60E6F" d="M222.182 307.353C241.25 305.529 242.621 318.083 229.825 320.743C213.81 320.904 205.043 308.976 222.182 307.353Z"/>
	<path fill="#1D3557" d="M340.03 273.352C345.048 272.942 350.657 275.158 354.603 278.15C368.023 288.324 358.717 309.755 342.462 311.781C315.571 313.81 312.669 275.802 340.03 273.352Z"/>
	<path fill="#FF8F5B" d="M338.66 282.313C352.183 281.698 354.797 298.057 342.082 302.222C327.942 304.313 326.219 285.367 338.66 282.313Z"/>
	<path fill="#1D3557" d="M411.89 273.338C437.759 272.073 444.842 305.625 416.741 313.038C402.797 315.793 390.634 301.796 394.103 288.324L394.224 287.875C396.469 279.224 403.131 274.538 411.89 273.338Z"/>
	<path fill="#F60E6F" d="M414.23 281.766C426.234 281.111 430.408 301.288 414.702 304.615C409.883 303.948 404.703 301.382 403.724 296.135L403.659 295.755C402.356 288.416 407.601 283.699 414.23 281.766Z"/>
	<path fill="#1D3557" d="M378.539 234.606L380.449 234.693C397.648 235.675 404.595 258.701 391.738 269.929C388.614 272.657 382.668 275.451 378.445 275.175C373.101 274.4 368.286 273.96 364 270.278C350.271 258.483 359.602 235.831 378.539 234.606Z"/>
	<path fill="#457B9D" d="M377.742 242.804C393.477 241.711 393.465 263.316 378.9 266.499L375.375 266.488C370.003 265.714 365.614 259.767 366.392 254.424L366.459 254C367.388 247.912 371.834 244.122 377.742 242.804Z"/>
	<path fill="#1D3557" d="M374.729 310.088C400.239 307.169 407.433 345.236 378.556 350.474C376.1 350.73 373.642 350.778 371.233 350.149L370.75 350.021C351.499 345.042 349.507 314.04 374.729 310.088Z"/>
	<path fill="#457B9D" d="M375.868 318.083C392.223 317.36 391.678 339.68 376.512 342.432C360.038 341.048 359.589 320.124 375.868 318.083Z"/>
	<path fill="#1D3557" d="M128.706 254.604C147.613 253.82 152.836 260.509 154.026 278.731C155.009 279.079 156.288 278.988 157.332 279.042C170.925 279.755 177.828 284.617 178.322 298.336C179.081 319.42 174.03 322.424 153.993 323.497C154.015 330.804 154.967 341.053 148.611 346.277C145.185 349.093 138.736 350.58 134.402 350.071C113.855 349.936 109.863 344.148 109.249 323.524C94.9713 322.094 84.8794 320.576 84.0197 304.04C82.9297 283.078 90.0832 280.436 109.209 279.793C109.401 264.107 111.419 255.975 128.706 254.604Z"/>
</svg>
