<?xml version="1.0" encoding="UTF-8" standalone="no"?>
<!DOCTYPE svg PUBLIC "-//W3C//DTD SVG 20010904//EN"
              "http://www.w3.org/TR/2001/REC-SVG-20010904/DTD/svg10.dtd">

<svg xmlns="http://www.w3.org/2000/svg"
     width="2.69in" height="2.69in"
     viewBox="0 0 807 807">
  <path id="Imported Path #1"
        fill="#ffffff" stroke="black" stroke-width="1"
        d="M 485.59,320.02
           C 511.53,288.42 526.19,249.85 520.41,208.88
             517.74,190.06 508.89,174.26 493.84,161.49
             465.93,137.80 433.45,127.54 396.38,130.71
             362.89,133.58 332.76,145.54 305.99,166.61
             294.75,175.47 287.31,186.60 283.67,200.01
             282.72,203.52 281.76,209.39 280.78,217.62
             280.14,223.04 279.81,228.96 279.80,235.40
             279.73,271.75 279.74,308.09 279.83,344.43
             279.84,349.51 278.52,353.75 277.50,358.71
             274.18,374.73 263.21,388.44 249.52,395.85
             241.69,400.09 233.24,402.24 224.15,402.30
             196.03,402.50 170.05,384.24 159.72,358.70
             157.60,353.45 155.94,346.26 154.74,337.14
             153.41,327.05 152.67,319.50 152.51,314.49
             152.02,299.01 152.12,275.40 152.80,243.65
             152.89,239.64 153.27,234.85 153.95,229.26
             154.72,222.86 155.02,215.75 155.92,210.09
             160.01,184.27 170.28,161.53 187.16,141.53
             224.80,96.99 276.43,64.92 333.12,50.85
             343.73,48.21 357.58,45.39 370.35,44.23
             375.66,43.75 380.96,43.25 386.28,42.74
             403.82,41.01 420.91,41.00 438.64,43.27
             444.09,43.55 448.57,44.13 453.04,44.91
             474.43,48.69 491.77,52.75 505.06,57.11
             528.78,64.88 551.68,77.47 573.76,94.87
             611.04,124.27 631.21,162.87 637.96,209.14
             638.73,214.42 638.25,219.85 639.18,225.08
             640.74,234.03 639.09,243.85 638.64,250.71
             636.59,282.51 621.07,314.63 600.91,339.21
             586.64,356.63 572.23,372.13 557.70,385.70
             545.12,397.45 538.79,403.35 538.72,403.43
             516.55,424.77 493.59,445.43 471.78,467.14
             454.58,484.25 437.28,501.26 419.86,518.15
             410.66,527.08 402.33,536.75 394.86,547.17
             389.59,554.54 385.48,563.88 382.54,575.20
             380.69,582.30 379.60,588.57 379.26,593.99
             378.69,603.58 376.57,612.81 376.53,621.28
             376.45,646.64 376.41,672.00 376.40,697.35
             376.40,706.66 375.80,713.80 374.60,718.78
             369.51,739.77 356.20,753.64 334.66,760.38
             332.47,761.06 329.80,761.51 326.64,761.73
             323.03,761.98 319.21,762.62 315.75,762.35
             284.26,760.00 263.66,744.40 253.95,715.54
             252.81,712.15 251.99,708.03 251.49,703.17
             250.91,697.45 250.14,692.13 250.15,686.35
             250.20,667.44 250.29,648.53 250.43,629.64
             250.52,618.44 251.31,607.40 252.01,596.27
             252.13,594.25 252.52,591.51 253.16,588.05
             254.62,580.22 255.72,573.10 258.88,564.65
             265.06,548.09 275.64,531.96 287.24,519.09
             311.11,492.58 338.53,468.00 364.16,442.67
             370.23,436.67 378.59,428.62 389.22,418.53
             404.69,403.85 426.45,382.30 454.50,353.87
             467.64,340.54 478.01,329.26 485.59,320.02 Z
           M 428.82,36.18M 484.60,537.26
           C 519.55,528.13 551.94,546.62 563.08,580.73
             564.36,584.66 565.44,589.67 566.30,595.77
             567.74,605.94 569.54,615.90 568.28,626.20
             567.63,631.43 567.31,635.24 567.31,637.66
             567.31,655.95 567.27,674.23 567.18,692.51
             567.10,708.80 565.04,722.51 556.65,734.76
             544.53,752.46 528.11,761.53 507.38,761.99
             498.53,762.19 489.93,760.52 481.59,756.99
             461.40,748.48 448.34,733.16 442.41,711.02
             440.92,705.48 440.84,698.68 440.09,692.34
             439.32,685.76 439.89,679.13 439.53,672.52
             438.19,648.34 438.60,623.79 438.72,599.59
             438.75,594.15 439.82,589.10 440.63,583.66
             444.14,559.70 461.55,543.28 484.60,537.26 Z
           M 567.50,518.00" />
</svg>
