<?xml version="1.0" encoding="utf-8" ?>
<svg xmlns="http://www.w3.org/2000/svg" xmlns:xlink="http://www.w3.org/1999/xlink" width="512" height="512">
	<path fill="#382D75" transform="scale(8 8)" d="M28.499 2.34172C36.643 1.56191 43.7443 3.54071 50.3652 8.31784C51.1361 8.87408 51.704 9.57042 52.3956 10.2059C57.3432 14.7523 60.4509 20.5647 61.5112 27.2155C62.804 35.3245 60.8165 43.3499 56.0058 49.9793C51.1141 56.7205 43.6005 60.3943 35.5623 61.6677C27.9831 62.4798 20.341 60.6525 14.2272 56.0256C8.11517 51.4 3.54572 44.5365 2.49015 36.845C1.385 28.7924 3.04481 20.5982 8.00303 14.0575C13.099 7.33514 20.2166 3.47586 28.499 2.34172Z"/>
	<path fill="#3CABC0" transform="scale(8 8)" d="M29.3989 8.56888C34.843 8.07511 40.413 9.3446 44.9791 12.3915C50.378 15.9942 53.8781 21.5362 55.1397 27.8715C56.3118 33.7577 54.7547 40.1308 51.439 45.0869C47.5291 50.9311 41.9732 53.8782 35.2408 55.211L34.8485 55.2887C29.256 56.3077 23.0694 54.3227 18.4902 51.1439C13.0082 47.3383 9.85246 41.6276 8.69758 35.1469C7.70928 29.6009 9.51488 23.1358 12.7108 18.5734C16.8194 12.7081 22.4999 9.78154 29.3989 8.56888Z"/>
	<path fill="#382D75" transform="scale(8 8)" d="M21.7361 51.4999L21.6735 51.4402L21.6431 51.4132C21.2368 51.048 20.5048 50.8072 20.0263 50.4787C18.7144 49.5782 17.4893 48.5912 16.3547 47.4749C12.4305 43.6141 10.0228 37.9122 9.97861 32.4151C9.93053 26.437 12.0141 20.8599 16.2175 16.5902C20.4265 12.3147 25.9818 9.99621 31.9942 9.9523C37.7573 9.91021 43.4183 12.2329 47.5145 16.2762C51.6703 20.3784 54.0074 26.0351 54.0374 31.8742C54.0669 37.6456 51.758 43.3314 47.6927 47.4243C46.097 49.0309 44.3552 50.3539 42.3587 51.4191L40.9808 52.2591C40.5405 52.1433 38.7767 52.9212 38.2483 53.0739C36.691 53.524 34.9241 53.9255 33.3048 54.0151C30.6755 54.1605 28.1992 53.7947 25.6759 53.0742C24.8356 52.8343 24.0366 52.3719 23.1605 52.2919L23.1174 52.2884L21.7361 51.4999Z"/>
	<path fill="#F3EEED" transform="scale(8 8)" d="M14.571 27.2107C15.2137 28.5291 14.7072 28.9712 14.7242 30.25C14.7272 30.4832 15.038 31.0227 15.1085 31.2892C15.2728 31.911 15.1088 32.5742 15.4276 33.1554L15.8698 36.6868C15.5485 36.5007 15.2731 36.2034 15 35.9531C14.7725 36.0447 14.58 36.2311 14.3919 36.386C13.9596 33.2836 13.8383 30.2815 14.571 27.2107Z"/>
	<path fill="#F3EEED" transform="scale(8 8)" d="M48.3763 28.78L49.4655 27.209C50.2042 30.0436 50.0111 33.5873 49.5479 36.4649C48.7882 35.9823 48.6968 35.8373 48.4158 34.9757C48.5959 32.8666 48.5625 30.8878 48.3763 28.78Z"/>
	<path fill="#E6DFE3" transform="scale(8 8)" d="M48.4158 34.9757C48.6968 35.8373 48.7882 35.9823 49.5479 36.4649C48.9827 38.1889 48.3928 39.8783 47.4241 41.4252C46.7628 42.4814 46.0146 43.7022 44.75 43.9914L44.3279 43.7137C44.7319 42.4919 45.7296 41.3333 46.3954 40.2282C47.3796 38.5946 47.9673 36.8152 48.4158 34.9757Z"/>
	<path fill="#E5E1E0" transform="scale(8 8)" d="M14.3919 36.386C14.58 36.2311 14.7725 36.0447 15 35.9531C15.2731 36.2034 15.5485 36.5007 15.8698 36.6868C16.1084 36.8366 16.7242 38.6015 16.9029 38.9742C17.6171 40.4639 18.6291 41.7583 19.5255 43.1368C19.8813 43.6839 19.9604 43.941 19.8294 44.5657L19.375 44.7343C16.7331 42.8348 15.2803 39.3965 14.3919 36.386Z"/>
	<path fill="#E6DFE3" transform="scale(8 8)" d="M19.6574 18.7305C20.2556 18.8649 20.5507 18.9021 21.0241 19.3163C16.871 23.5245 15.5022 27.2872 15.4276 33.1554C15.1088 32.5742 15.2728 31.911 15.1085 31.2892C15.038 31.0227 14.7272 30.4832 14.7242 30.25C14.7072 28.9712 15.2137 28.5291 14.571 27.2107C15.0681 23.8724 17.373 21.0447 19.6574 18.7305Z"/>
	<path fill="#F171A6" transform="scale(8 8)" d="M23.5959 37.532C23.7626 38.0165 23.9681 38.4864 24.085 38.9848C22.7465 41.4662 23.1627 44.7909 23.1384 47.5502C23.1249 49.0877 22.9741 50.764 23.1174 52.2884L21.7361 51.4999L21.7098 44.5805C21.7123 42.8664 21.6067 41.1384 22.2448 39.5109C22.53 38.7833 23.1068 38.133 23.5959 37.532Z"/>
	<path fill="#E66A9F" transform="scale(8 8)" d="M23.5959 37.532C26.355 35.7553 29.1511 35.989 32.3193 35.9934C34.174 35.996 36.0888 35.9421 37.9124 36.3291C39.2321 36.6091 40.4915 37.4523 41.2175 38.5892C43.2902 41.8349 42.0751 47.6427 42.3587 51.4191L40.9808 52.2591L40.8121 42.961C40.7813 41.7979 40.7736 40.2069 40.0136 39.2378C39.6867 38.8209 38.6072 37.8802 38.1189 37.8181C35.6322 37.5016 32.8913 37.7033 30.3784 37.711C29.0224 37.7151 27.2513 37.5276 25.9491 37.8573C25.2784 38.0271 24.6255 38.5673 24.085 38.9848C23.9681 38.4864 23.7626 38.0165 23.5959 37.532Z"/>
	<path fill="#E5E1E0" transform="scale(8 8)" d="M19.6574 18.7305C23.8956 14.8715 28.1738 13.7782 33.8422 14.043C38.4428 14.2579 42.5979 16.6856 45.645 20.0418C47.3295 21.8971 49.0568 24.6985 49.4655 27.209L48.3763 28.78C48.043 26.592 46.8861 24.1995 45.6223 22.4005C43.2607 19.0385 39.3721 16.365 35.2804 15.657C29.7747 14.7043 25.4562 16.2007 21.0241 19.3163C20.5507 18.9021 20.2556 18.8649 19.6574 18.7305Z"/>
	<path fill="#F171A6" transform="scale(8 8)" d="M30.3223 19.2969C31.9181 19.1325 33.5423 19.239 34.9912 19.9478C36.9787 20.9201 38.3774 22.3852 39.0967 24.4958C39.8226 26.6256 39.6348 28.319 38.6453 30.3119C37.5667 32.4842 35.606 33.6223 33.4054 34.3545C31.7509 34.6144 30.3874 34.5049 28.8694 33.8107C26.759 32.8457 25.3595 31.0555 24.5665 28.9167C23.9652 27.2948 24.2207 25.2726 24.9342 23.7389C26.0854 21.2645 27.8762 20.1849 30.3223 19.2969Z"/>
	<path fill="#382D75" transform="scale(8 8)" d="M30.6751 20.7636C31.9659 20.7065 33.0866 20.6737 34.2995 21.207C35.7396 21.8402 36.8591 22.7559 37.4358 24.2545C38.0524 25.8567 38.1547 27.627 37.4338 29.225C36.6232 31.022 34.9663 32.0817 33.1979 32.7606C31.61 32.989 30.3607 32.877 28.9536 32.0787C27.4345 31.2169 26.4731 29.9217 26.0193 28.2409C25.6736 26.9604 25.7838 25.1214 26.4561 23.958C27.4303 22.2725 28.8072 21.2676 30.6751 20.7636Z"/>
	<path fill="#E6DFE3" transform="scale(8 8)" d="M27.5146 26.125L27.6076 26.1029C28.7441 25.8994 28.8249 28.1603 29.311 28.875C29.5096 29.1671 30.0453 29.542 30.3402 29.7426C30.9723 30.1726 32.0256 30.136 32.7464 29.9923C34.5616 29.6303 34.8726 27.4069 35.7387 26.125L36.2773 26.125C36.7472 26.8452 36.6644 27.0477 36.6069 27.875C36.5231 28.4867 36.1887 29.1236 35.8245 29.6172C35.0374 30.684 33.895 31.4648 32.5605 31.6554C31.2684 31.84 30.0598 31.5087 29.0267 30.7253C28.0163 29.9592 27.3127 29.0137 27.1411 27.7485C27.0275 26.9108 26.9909 26.8128 27.5146 26.125Z"/>
	<path fill="#382D75" transform="scale(8 8)" d="M24.085 38.9848C24.6255 38.5673 25.2784 38.0271 25.9491 37.8573C27.2513 37.5276 29.0224 37.7151 30.3784 37.711C32.8913 37.7033 35.6322 37.5016 38.1189 37.8181C38.6072 37.8802 39.6867 38.8209 40.0136 39.2378C40.7736 40.2069 40.7813 41.7979 40.8121 42.961L40.9808 52.2591C40.5405 52.1433 38.7767 52.9212 38.2483 53.0739C36.691 53.524 34.9241 53.9255 33.3048 54.0151C30.6755 54.1605 28.1992 53.7947 25.6759 53.0742C24.8356 52.8343 24.0366 52.3719 23.1605 52.2919L23.1174 52.2884C22.9741 50.764 23.1249 49.0877 23.1384 47.5502C23.1627 44.7909 22.7465 41.4662 24.085 38.9848Z"/>
</svg>
