<?xml version="1.0" encoding="utf-8" ?>
<svg xmlns="http://www.w3.org/2000/svg" xmlns:xlink="http://www.w3.org/1999/xlink" width="512" height="512">
	<path fill="#1D3557" d="M13.2128 120.093C19.4742 121.444 18.3617 122.85 18.3572 128.624L18.3367 140.108C18.3261 144.6 19.3755 165.367 17.1041 168.785L16.9744 168.942C13.8886 169.764 8.74051 168.297 7.66354 164.922C7.0029 162.851 7.2515 160.395 7.24694 158.232L7.34077 131.997C7.41166 126.11 6.14818 121.977 13.2128 120.093Z"/>
	<path fill="#1D3557" d="M354.863 50.4257C353.306 47.8286 352.609 41.5026 356.697 40.6672L356.97 40.6206C359.068 40.2022 361.323 40.3491 363.458 40.3477L373.479 40.3457C381.607 40.3473 389.989 39.9534 398.087 40.4627C401.62 40.6849 403.03 42.3302 403.899 45.7915L403.415 51.1754C400.335 51.7746 396.962 51.5354 393.828 51.5408L363.875 51.5802C360.817 51.6088 357.284 52.6932 354.863 50.4257Z"/>
	<path fill="#1D3557" d="M309.51 482.987L322.119 482.629C325.022 482.619 328.722 482.195 331.432 483.307C336.482 485.38 335.829 493.89 327.261 493.822L191.607 493.749C188.276 493.747 184.743 494.007 181.447 493.716C176.905 493.313 176.407 486.761 179.208 484.056L179.407 483.868C181.576 481.697 185.895 482.688 188.679 482.691L203.557 482.716C205.344 483.705 208.894 483.302 210.893 483.309L296.405 483.287C300.695 483.281 305.263 483.554 309.51 482.987Z"/>
	<path fill="#1D3557" d="M11.9189 327.642C8.98503 326.309 7.34044 325.329 7.25903 321.875L7.19013 185.563C7.15132 183.846 7.01523 181.868 7.41737 180.185L7.57994 179.484C8.43198 175.729 11.7263 174.067 15.2857 174.995C17.6582 177.326 18.2421 178.798 18.2793 182.125L18.3079 306.52C18.3054 313.552 21.1492 326.48 11.9189 327.642Z"/>
	<path fill="#1D3557" d="M13.2258 98.2946C5.29233 96.873 7.24293 89.2167 7.24541 83.1959C7.24793 77.0648 6.80177 70.3901 7.72901 64.3327C10.6141 45.4853 25.9907 40.4218 42.3413 40.4006L151.01 40.3802C158.584 40.3868 159.292 39.1643 161.187 47.3027C157.231 52.7326 156.665 51.6138 150.432 51.5658L43.8496 51.5274C35.8289 51.5374 28.9316 50.6337 23.1443 57.3638C17.5036 63.9234 17.6968 77.5808 18.4369 86.2046C18.7746 90.1399 17.4736 97.6242 13.2258 98.2946Z"/>
	<path fill="#1D3557" d="M422.55 46.5572C422.9 40.1158 426.276 40.2832 431.29 40.3256L465.287 40.3873C479.448 40.4039 493.514 40.83 500.813 56.231L500.976 56.5665C503.393 61.6289 503.533 66.4252 503.532 71.9216L503.469 321.661C503.456 323.226 503.541 324.831 502.791 326.25L502.643 326.535C501.823 328.029 500.289 328.694 498.774 329.297C493.054 328.265 492.46 322.932 492.747 318.325L492.891 91.9072C492.888 74.2027 498.019 51.633 472.949 51.5307L429.604 51.5654C425.464 51.5645 424.035 50.959 422.632 46.8191L422.55 46.5572Z"/>
	<path fill="#457B9D" d="M189.182 408.932L309.947 408.951C309.149 411.039 309.4 413.599 309.397 415.784L309.439 482.768C305.263 483.554 300.695 483.281 296.405 483.287L210.893 483.309C208.894 483.302 205.344 483.705 203.557 482.955L205.715 408.962L189.182 408.932Z"/>
	<path fill="#457B9D" d="M13.442 345.789L472.761 345.759C481.357 345.776 489.905 345.636 498.464 346.533L498.691 346.818C499.676 347.817 501.976 347.815 503.1 348.793C504.237 349.783 503.538 366.18 503.54 368.577L503.549 378.99C503.569 393.071 497.935 403.109 483.76 408.063L483.176 408.261C479.665 409.439 474.857 408.973 471.149 408.983L309.947 408.966L189.182 408.95C183.912 408.97 178.205 409.351 173.013 408.522L170.5 404.993L94.792 404.755C93.5241 410.577 85.5271 408.982 81.228 408.982L42.557 409C39.0083 408.998 35.1665 409.291 31.6617 408.833C17.928 407.036 8.17765 394.509 7.40623 381.05C7.07413 375.256 7.30518 369.341 7.30578 363.536L7.3388 354.021C7.42204 348.034 7.82292 348.165 13.442 345.789Z"/>
	<path fill="#CA0851" d="M254.998 366.812C267.71 365.665 267.513 382.223 256.176 383.461C252.197 382.806 246.75 379.786 245.575 375.75C246.022 371.061 250.705 367.608 254.998 366.812Z"/>
	<path fill="#1D3557" d="M13.442 345.789L472.761 345.759C481.357 345.776 489.905 345.636 498.464 346.533L498.691 346.818C499.676 347.817 501.976 347.815 503.1 348.793C504.237 349.783 503.538 366.18 503.54 368.577L503.549 378.99C503.569 393.071 497.935 403.109 483.76 408.063L483.176 408.261C479.665 409.439 474.857 408.973 471.149 408.983L309.947 408.966L189.182 408.95C183.912 408.97 178.205 409.351 173.013 408.522L170.5 404.993C171.989 398.25 170.658 398.025 178.422 398.002L465.767 398.015C487.504 397.926 492.906 396.698 492.91 373.805L492.986 356.897C488.322 356.377 483.206 356.791 478.481 356.789L276.428 356.775L32.0262 356.792L18.9852 357.243C18.6248 358.224 18.6436 359.306 18.5762 360.341L18.3672 366.824C18.2864 378.185 16.7814 389.761 27.875 396.575C32.2378 399.255 38.5555 398.02 43.4693 398.02L75.274 398.012C80.3955 398.012 85.8483 397.641 90.9257 398.103C94.4451 398.423 94.5207 401.928 94.792 404.775C93.5241 410.577 85.5271 408.982 81.228 408.982L42.557 409C39.0083 408.998 35.1665 409.291 31.6617 408.833C17.928 407.036 8.17765 394.509 7.40623 381.05C7.07413 375.256 7.30518 369.341 7.30578 363.536L7.3388 354.021C7.42204 348.034 7.82292 348.165 13.442 345.789Z"/>
	<path fill="#A8DADC" d="M175.272 52.5666C209.075 10.3179 274.005 3.45515 317.935 33.7797L322.638 37.2366C324.162 38.4611 323.956 38.9667 324.858 40.6118C327.326 45.1143 333.038 47.4001 336.416 51.4567L336.458 51.3648C339.6 47.2923 350.24 49.431 354.863 50.4257C357.284 52.6932 360.817 51.6088 363.875 51.5802L393.828 51.5408C396.962 51.5354 400.335 51.7746 403.415 51.1754L403.88 45.7915L404.25 46.2317C406.24 46.2736 408.109 46.0015 410.083 45.8866L418.625 45.8143C419.336 45.841 422.294 46.6892 422.55 46.5572L422.632 46.8191C424.035 50.959 425.464 51.5645 429.604 51.5654L472.949 51.5307C498.019 51.633 492.888 74.2027 492.891 91.9072L492.747 318.325C492.46 322.932 493.054 328.265 498.774 329.297C498.02 332.86 499.085 341.474 498.546 346.287L498.757 346.566C489.905 345.636 481.357 345.776 472.761 345.759L13.442 345.762L13.1182 327.875L11.9189 327.642C21.1492 326.48 18.3054 313.552 18.3079 306.52L18.2793 182.125C18.2421 178.798 17.6582 177.326 15.2857 174.995C16.7121 174.226 16.4666 170.546 16.9744 168.942L17.1041 168.785C19.3755 165.367 18.3261 144.6 18.3367 140.108L18.3572 128.624C18.3617 122.85 19.4742 121.444 13.2128 120.093L13.1857 98.2946C17.4736 97.6242 18.7746 90.1399 18.4369 86.2046C17.6968 77.5808 17.5036 63.9234 23.1443 57.3638C28.9316 50.6337 35.8289 51.5374 43.8496 51.5274L150.432 51.5658C156.665 51.6138 157.231 52.7326 161.187 47.3027C162.019 48.5201 173.101 51.4733 175.272 52.5666Z"/>
	<path fill="#1D3557" d="M250.276 266.114L262.077 266.126C272.679 266.154 280.108 266.693 284.475 278L284.856 279.068C285.686 282.049 285.677 285.187 285.687 288.252L285.682 297.509C285.67 301.701 286.548 307.01 284.484 310.834L283.495 312.645C278.781 320.592 271.098 321.241 262.875 321.304L250.578 321.302C237.115 321.257 227.424 317.507 227.189 302.336L227.146 291.18C227.156 273.18 231.728 266.39 250.276 266.114Z"/>
	<path fill="#B02DC7" d="M247.643 276.786L261.66 276.733C270.548 276.745 274.659 276.417 274.819 287.519L274.834 297.424C274.827 299.887 274.974 302.498 274.39 304.905L274.302 305.289C272.828 311.378 262.252 310.375 257.62 310.069L257.699 283.592C257.642 281.606 256.646 279.172 256.839 277.364L256.892 276.973C253.956 276.53 250.629 276.792 247.643 276.786Z"/>
	<path fill="#E01EE2" d="M257.694 310.066C239.224 310.3 237.985 312.25 237.968 294.305C237.959 285.261 236.491 277.496 247.643 276.966C250.629 276.792 253.956 276.53 256.892 276.973L256.839 277.364C256.646 279.172 257.642 281.606 257.699 283.592L257.694 310.066Z"/>
	<path fill="#B02DC7" d="M175.272 52.5666C209.075 10.3179 274.005 3.45515 317.935 33.7797L322.638 37.2366C324.162 38.4611 323.956 38.9667 324.858 40.6118C327.326 45.1143 333.038 47.4001 336.416 51.4567L339.462 56.3304C360.629 92.4297 354.95 132.885 326.241 162.373C313.667 175.288 292.459 186.755 287.252 204.445C284.87 212.538 285.68 221.914 285.654 230.297C285.627 239.123 285.085 246.45 273.75 248.011L273.302 248.077C269.784 248.562 266.192 248.001 262.666 247.972C257.124 247.925 247.959 249.154 242.875 247.142C232.515 243.042 230.818 237.281 230.643 226.84C230.54 220.711 231.594 219.061 238.235 217.933C239.058 214.111 238.867 207.515 239.764 202.784L239.562 202.738C237.507 202.04 235.057 198.674 234.15 196.824C237.678 177.405 261.98 156.168 274.955 142.497C289.578 127.088 298.939 112.318 293.703 89.575C288.709 67.886 263.988 59.262 244.081 64.0839C223.723 69.0151 217.156 83.2722 215.197 102.79C214.155 113.176 214.41 121.008 202.159 123.854C194.691 125.589 171.174 124.492 164.597 120.163C158.189 115.946 158.549 107.317 159.019 100.626C160.221 83.5221 165.884 66.8791 175.272 52.5666Z"/>
	<path fill="#1D3557" d="M175.272 52.5666C209.075 10.3179 274.005 3.45515 317.935 33.7797L322.638 37.2366C324.162 38.4611 323.956 38.9667 324.858 40.6118C327.326 45.1143 333.038 47.4001 336.416 51.4567L339.462 56.3304C360.629 92.4297 354.95 132.885 326.241 162.373C313.667 175.288 292.459 186.755 287.252 204.445C284.87 212.538 285.68 221.914 285.654 230.297C285.627 239.123 285.085 246.45 273.75 248.011L273.302 248.077C269.784 248.562 266.192 248.001 262.666 247.972C257.124 247.925 247.959 249.154 242.875 247.142C232.515 243.042 230.818 237.281 230.643 226.84C230.54 220.711 231.594 219.061 238.235 217.933C246.32 221.855 240.024 231.876 244.283 237.375C245.956 238.353 247.768 238.167 249.635 238.171L257.501 238.152C263.318 238.138 268.695 238.348 274.409 237.199C275.122 236.265 274.855 232.361 274.856 231.072L275.212 205.66C275.896 198.089 279.398 190.889 283.85 184.848C284.435 184.054 286.274 181.317 285.611 184.178L285.502 184.625C287.567 183.67 289.737 180.059 291.504 178.464L308.139 164.288C329.475 145.267 345.993 117.364 339.533 87.7465C325.897 25.2373 250.452 10.8553 202 42.2418C183.169 54.4405 172.776 77.1157 170.531 98.8729C169.552 108.356 169.149 112.603 179.456 113.462C184.483 113.881 195.208 114.574 199.849 113.265L200.184 113.165C203.614 112.166 204.102 111.241 204.147 107.951L204.316 102.125C206.008 79.0068 215.54 60.1472 239.3 53.7301C268.285 45.9022 301.601 60.8323 305.569 93.0716C308.463 116.585 299.245 132.125 284.077 148.173L262.841 170.041C254.171 179.421 248.606 186.603 245.489 199.096L239.764 202.784L239.562 202.738C237.507 202.04 235.057 198.674 234.15 196.824C237.678 177.405 261.98 156.168 274.955 142.497C289.578 127.088 298.939 112.318 293.703 89.575C288.709 67.886 263.988 59.262 244.081 64.0839C223.723 69.0151 217.156 83.2722 215.197 102.79C214.155 113.176 214.41 121.008 202.159 123.854C194.691 125.589 171.174 124.492 164.597 120.163C158.189 115.946 158.549 107.317 159.019 100.626C160.221 83.5221 165.884 66.8791 175.272 52.5666Z"/>
</svg>
