<?xml version="1.0" encoding="UTF-8" standalone="no"?>
<!DOCTYPE svg PUBLIC "-//W3C//DTD SVG 1.1//EN" "http://www.w3.org/Graphics/SVG/1.1/DTD/svg11.dtd">
<svg xmlns="http://www.w3.org/2000/svg" version="1.1" viewBox="0.00 0.00 1448.00 1448.00" width="1920.00" height="1920.00">
<path fill="#ffffff" d="
  M 739.53 594.30
  C 759.09 570.47 770.15 541.38 765.79 510.48
  Q 762.77 489.19 745.75 474.74
  Q 714.18 447.94 672.25 451.53
  Q 634.36 454.77 604.08 478.60
  Q 591.36 488.62 587.25 503.79
  Q 586.17 507.76 585.07 517.07
  Q 584.34 523.20 584.33 530.48
  Q 584.25 571.60 584.35 612.71
  C 584.36 616.54 583.36 619.74 582.59 623.48
  C 580.09 635.56 571.82 645.90 561.49 651.49
  Q 552.64 656.28 542.36 656.35
  C 521.15 656.50 501.56 642.73 493.77 623.47
  Q 491.37 617.53 490.01 607.21
  Q 488.51 595.79 488.33 590.13
  Q 487.78 572.62 488.55 536.70
  Q 488.65 532.17 489.42 525.85
  C 490.00 521.02 490.22 515.66 490.90 511.39
  C 493.99 491.92 501.73 474.77 514.46 459.69
  C 542.85 426.10 581.79 401.91 624.54 391.30
  C 632.54 389.31 642.99 387.18 652.62 386.31
  Q 658.62 385.76 664.63 385.18
  C 677.86 383.88 690.85 384.15 704.03 385.97
  C 707.58 386.46 711.61 386.23 714.98 386.82
  Q 739.18 391.09 754.21 396.02
  Q 781.05 404.81 806.02 424.50
  C 834.14 446.67 849.35 475.78 854.44 510.68
  C 855.02 514.66 854.66 518.75 855.36 522.70
  C 856.54 529.45 855.29 536.85 854.95 542.03
  C 853.41 566.01 841.70 590.23 826.50 608.77
  Q 810.35 628.48 793.91 643.83
  Q 779.68 657.12 779.60 657.20
  C 762.88 673.30 745.56 688.88 729.11 705.25
  Q 709.66 724.61 689.96 743.72
  Q 679.55 753.82 671.10 765.61
  Q 665.14 773.94 661.81 786.75
  Q 659.72 794.78 659.34 800.92
  C 658.91 808.15 657.31 815.11 657.28 821.50
  Q 657.19 850.19 657.18 878.87
  Q 657.18 889.40 655.82 895.03
  Q 650.07 918.78 625.70 926.40
  Q 623.23 927.17 619.65 927.42
  C 616.93 927.61 614.05 928.09 611.44 927.89
  Q 575.82 925.23 564.83 892.59
  Q 563.54 888.75 562.98 883.26
  C 562.54 878.94 561.96 874.93 561.97 870.57
  Q 562.02 849.18 562.18 827.80
  C 562.25 819.36 562.84 811.03 563.37 802.64
  Q 563.51 800.35 564.24 796.44
  C 565.34 790.53 566.17 785.16 568.55 778.79
  C 573.21 766.30 581.19 754.14 589.94 744.43
  C 607.94 724.44 628.62 705.90 647.95 686.80
  Q 654.82 680.01 666.85 668.59
  Q 684.35 651.99 716.08 619.83
  Q 730.95 604.75 739.53 594.30
  Z"
/>
<path fill="#ffffff" d="
  M 738.78 758.13
  C 765.14 751.25 789.57 765.19 797.97 790.92
  Q 799.42 795.36 800.40 802.26
  C 801.48 809.93 802.84 817.44 801.89 825.21
  Q 801.16 831.12 801.16 833.85
  Q 801.16 854.54 801.06 875.22
  C 801.00 887.50 799.45 897.84 793.12 907.08
  Q 779.41 927.10 755.96 927.62
  Q 745.95 927.84 736.51 923.85
  Q 713.67 914.22 706.96 889.18
  C 705.84 885.00 705.78 879.87 705.21 875.09
  C 704.63 870.13 705.06 865.13 704.79 860.14
  C 703.78 841.91 704.09 823.39 704.18 805.14
  C 704.20 801.04 705.01 797.23 705.62 793.13
  C 708.27 775.06 721.40 762.67 738.78 758.13
  Z"
/>
</svg>
